<svg width="137" height="33" viewBox="0 0 137 33" fill="none" xmlns="http://www.w3.org/2000/svg">
<path fill-rule="evenodd" clip-rule="evenodd" d="M1.82145 27.3242L1.96744 27.3633C1.91806 27.3536 1.86931 27.3405 1.82145 27.3242ZM22.6239 12.4547C23.1713 12.7808 23.5119 13.2112 23.6214 13.6547L23.6457 13.8243C23.5971 14.3199 23.2443 14.8156 22.6117 15.1938L3.39076 26.8938C3.00147 27.1416 2.62435 27.246 2.29589 27.246C1.95527 27.246 1.66331 27.1286 1.42 26.9068L1.34701 26.8286C1.02816 26.4162 0.867278 25.8894 0.896903 25.3547V2.29389C0.896903 1.58955 1.09155 1.05477 1.42 0.728682C1.66331 0.506944 1.95527 0.389553 2.29589 0.389553C2.62435 0.389553 3.00147 0.506944 3.39076 0.741726L22.6117 12.4547H22.6239ZM2.28373 0.233032H2.45404H2.28373ZM113.96 26.7894H116.222V10.4852H113.96V26.7894ZM134.397 16.3547L131.794 23.4242H131.721L129.02 16.3547H126.575L130.626 26.2416L128.315 31.7329H130.687L136.928 16.3547H134.397ZM121.526 24.9373C120.784 24.9373 119.75 24.546 119.75 23.5547C119.75 22.2895 121.04 21.8068 122.147 21.8068C123.157 21.8068 123.619 22.0416 124.227 22.3547C124.145 23.0627 123.826 23.7146 123.329 24.1895C122.832 24.6645 122.192 24.9301 121.526 24.9373ZM121.806 16.0025C120.152 16.0025 118.461 16.7851 117.755 18.4938L119.763 19.4069C120.2 18.4938 121.003 18.2069 121.831 18.2069C123.011 18.2069 124.203 18.9503 124.227 20.2938V20.4634C123.496 20.0486 122.682 19.8335 121.855 19.8373C119.69 19.8373 117.475 21.1155 117.475 23.5025C117.475 25.6938 119.264 27.1025 121.247 27.1025C122.779 27.1025 123.619 26.359 124.154 25.4981H124.227V26.7633H126.417V20.5025C126.417 17.6199 124.397 16.0025 121.794 16.0025H121.806ZM107.768 18.3503H104.544V12.7417H107.768C109.471 12.7417 110.444 14.2547 110.444 15.546C110.444 16.8112 109.471 18.3373 107.768 18.3373V18.3503ZM107.719 10.4852H102.269V26.7894H104.544V20.6069H107.707C110.225 20.6069 112.695 18.6503 112.695 15.546C112.695 12.4417 110.225 10.4852 107.707 10.4852H107.719ZM78.0482 24.9373C76.4911 24.9373 75.1773 23.5286 75.1773 21.5982C75.1773 19.6416 76.4911 18.2069 78.0482 18.2069C79.6054 18.2069 80.8219 19.6416 80.8219 21.5982C80.8219 23.5286 79.6054 24.9373 78.0482 24.9373ZM80.6638 17.2677H80.5786C80.2327 16.8653 79.8107 16.5466 79.3408 16.3329C78.8709 16.1192 78.3639 16.0155 77.8536 16.0286C76.5144 16.0829 75.2478 16.6952 74.3231 17.7353C73.3985 18.7754 72.8888 20.1613 72.9024 21.5982C72.8921 23.0302 73.4041 24.4099 74.329 25.443C75.2539 26.4761 76.5187 27.081 77.8536 27.1286C78.3663 27.1427 78.8757 27.0368 79.3463 26.8183C79.8169 26.5998 80.2375 26.2739 80.5786 25.8633H80.6638V26.659C80.6638 28.7851 79.6054 29.9199 77.9023 29.9199C77.3329 29.9082 76.7798 29.7145 76.3138 29.3636C75.8478 29.0127 75.4902 28.5206 75.2868 27.9503L73.316 28.8242C73.6874 29.8001 74.3226 30.6347 75.1399 31.2204C75.9572 31.8062 76.9192 32.1164 77.9023 32.1111C80.5664 32.1111 82.817 30.4155 82.817 26.3329V16.3677H80.6638V17.2808V17.2677ZM84.3863 26.7894H86.6612V10.4852H84.3863V26.7894ZM90.0066 21.4025C89.9819 20.9991 90.0326 20.5944 90.1556 20.2122C90.2787 19.83 90.4716 19.478 90.7231 19.1768C90.9746 18.8755 91.2796 18.6311 91.6203 18.4578C91.961 18.2846 92.3306 18.186 92.7073 18.1677C93.6196 18.1677 94.386 18.6503 94.6293 19.3416L90.0066 21.4155V21.4025ZM97.0624 19.5634C96.6366 18.3243 95.3228 16.0417 92.6343 16.0417C89.9701 16.0417 87.756 18.2721 87.756 21.5721C87.756 24.6894 89.9458 27.1286 92.8897 27.1286C95.2619 27.1286 96.6366 25.5634 97.2084 24.6634L95.4444 23.4112C95.1786 23.8813 94.8033 24.2691 94.3554 24.5367C93.9075 24.8042 93.4024 24.9423 92.8897 24.9373C91.734 24.9373 90.9068 24.3764 90.3837 23.2547L97.3057 20.1895L97.0624 19.5634ZM41.9543 17.7373V20.0851H47.1974C47.1218 21.1877 46.7018 22.2308 46.0053 23.046C45.4781 23.6219 44.844 24.0727 44.1441 24.3693C43.4442 24.6658 42.694 24.8016 41.9421 24.7677C41.1797 24.766 40.4252 24.6023 39.7222 24.2859C39.0192 23.9696 38.3817 23.5069 37.8466 22.9247C37.3115 22.3424 36.8893 21.6522 36.6046 20.8939C36.32 20.1355 36.1783 19.3242 36.188 18.5069C36.1737 17.2932 36.4929 16.1018 37.1058 15.0813C37.7187 14.0608 38.5982 13.2563 39.6346 12.7682C40.6711 12.28 41.8186 12.1297 42.9342 12.3361C44.0497 12.5424 45.084 13.0963 45.9079 13.9286L47.4529 12.2721C46.7279 11.5032 45.867 10.8972 44.9207 10.4896C43.9744 10.0819 42.9618 9.88088 41.9421 9.89821C39.8013 9.89795 37.7464 10.8007 36.2213 12.4115C34.6962 14.0223 33.8234 16.2118 33.7915 18.5069C33.8234 20.8019 34.6962 22.9914 36.2213 24.6022C37.7464 26.213 39.8013 27.1158 41.9421 27.1155C44.3386 27.1155 46.1391 26.2807 47.5502 24.7025C48.8292 23.204 49.5104 21.2283 49.448 19.1982C49.448 18.6503 49.4115 18.1547 49.3263 17.7373H41.9421H41.9543ZM55.4211 24.9373C53.8518 24.9373 52.5014 23.5547 52.5014 21.5721C52.5014 19.5764 53.8518 18.2199 55.4211 18.2199C57.0026 18.2199 58.3407 19.5764 58.3407 21.5721C58.3407 23.5547 57.0026 24.9373 55.4211 24.9373ZM55.4211 16.0286C54.7378 16.0163 54.0592 16.1512 53.4254 16.4251C52.7916 16.699 52.2155 17.1064 51.7312 17.6233C51.2468 18.1402 50.8641 18.756 50.6057 19.4342C50.3473 20.1125 50.2183 20.8394 50.2266 21.5721C50.2167 22.3058 50.3444 23.0342 50.6021 23.7139C50.8598 24.3937 51.2423 25.0111 51.7268 25.5293C52.2113 26.0476 52.7879 26.4562 53.4226 26.7309C54.0572 27.0056 54.7368 27.1409 55.4211 27.1286C56.1054 27.1409 56.785 27.0056 57.4196 26.7309C58.0542 26.4562 58.6309 26.0476 59.1154 25.5293C59.5999 25.0111 59.9823 24.3937 60.2401 23.7139C60.4978 23.0342 60.6255 22.3058 60.6156 21.5721C60.6238 20.8394 60.4949 20.1125 60.2365 19.4342C59.978 18.756 59.5953 18.1402 59.111 17.6233C58.6266 17.1064 58.0505 16.699 57.4167 16.4251C56.7829 16.1512 56.1043 16.0163 55.4211 16.0286ZM66.759 24.9373C65.1775 24.9373 63.8394 23.5547 63.8394 21.5721C63.8394 19.5764 65.1775 18.2199 66.759 18.2199C68.3161 18.2199 69.6786 19.5764 69.6786 21.5721C69.6786 23.5547 68.3161 24.9373 66.759 24.9373ZM66.759 16.0286C66.0757 16.0163 65.3971 16.1512 64.7633 16.4251C64.1295 16.699 63.5534 17.1064 63.0691 17.6233C62.5848 18.1402 62.2021 18.756 61.9436 19.4342C61.6852 20.1125 61.5563 20.8394 61.5645 21.5721C61.5546 22.3058 61.6823 23.0342 61.94 23.7139C62.1977 24.3937 62.5802 25.0111 63.0647 25.5293C63.5492 26.0476 64.1259 26.4562 64.7605 26.7309C65.3951 27.0056 66.0747 27.1409 66.759 27.1286C67.4433 27.1409 68.1229 27.0056 68.7575 26.7309C69.3921 26.4562 69.9688 26.0476 70.4533 25.5293C70.9378 25.0111 71.3203 24.3937 71.578 23.7139C71.8357 23.0342 71.9634 22.3058 71.9535 21.5721C71.9617 20.8394 71.8328 20.1125 71.5744 19.4342C71.3159 18.756 70.9332 18.1402 70.4489 17.6233C69.9646 17.1064 69.3885 16.699 68.7547 16.4251C68.1209 16.1512 67.4422 16.0163 66.759 16.0286Z" fill="white"/>
</svg>
